<mxfile host="app.diagrams.net" agent="Mozilla/5.0 (Windows NT 10.0; Win64; x64) AppleWebKit/537.36 (KHTML, like Gecko) Chrome/134.0.0.0 Safari/537.36" version="26.2.14">
  <diagram name="Page-1" id="c4acf3e9-155e-7222-9cf6-157b1a14988f">
    <mxGraphModel dx="3379" dy="1302" grid="1" gridSize="10" guides="1" tooltips="1" connect="1" arrows="1" fold="1" page="1" pageScale="1" pageWidth="850" pageHeight="1100" background="none" math="0" shadow="0">
      <root>
        <mxCell id="0" />
        <mxCell id="1" parent="0" />
        <mxCell id="Qn4JZDb_33ZS8o1DmR2T-9" value="Engine" style="swimlane;fontStyle=1;align=center;verticalAlign=top;childLayout=stackLayout;horizontal=1;startSize=26;horizontalStack=0;resizeParent=1;resizeParentMax=0;resizeLast=0;collapsible=1;marginBottom=0;whiteSpace=wrap;html=1;" vertex="1" parent="1">
          <mxGeometry x="270" y="150" width="185" height="294" as="geometry" />
        </mxCell>
        <mxCell id="Qn4JZDb_33ZS8o1DmR2T-2" value="- Renderer* renderer" style="text;strokeColor=none;fillColor=none;align=left;verticalAlign=top;spacingLeft=4;spacingRight=4;overflow=hidden;rotatable=0;points=[[0,0.5],[1,0.5]];portConstraint=eastwest;whiteSpace=wrap;html=1;" vertex="1" parent="Qn4JZDb_33ZS8o1DmR2T-9">
          <mxGeometry y="26" width="185" height="26" as="geometry" />
        </mxCell>
        <mxCell id="Qn4JZDb_33ZS8o1DmR2T-3" value="- InputHandler* inputHandler" style="text;strokeColor=none;fillColor=none;align=left;verticalAlign=top;spacingLeft=4;spacingRight=4;overflow=hidden;rotatable=0;points=[[0,0.5],[1,0.5]];portConstraint=eastwest;whiteSpace=wrap;html=1;" vertex="1" parent="Qn4JZDb_33ZS8o1DmR2T-9">
          <mxGeometry y="52" width="185" height="26" as="geometry" />
        </mxCell>
        <mxCell id="Qn4JZDb_33ZS8o1DmR2T-4" value="- Player* player&lt;div&gt;&lt;br&gt;&lt;/div&gt;" style="text;strokeColor=none;fillColor=none;align=left;verticalAlign=top;spacingLeft=4;spacingRight=4;overflow=hidden;rotatable=0;points=[[0,0.5],[1,0.5]];portConstraint=eastwest;whiteSpace=wrap;html=1;" vertex="1" parent="Qn4JZDb_33ZS8o1DmR2T-9">
          <mxGeometry y="78" width="185" height="26" as="geometry" />
        </mxCell>
        <mxCell id="Qn4JZDb_33ZS8o1DmR2T-7" value="&lt;div&gt;- vector&amp;lt;Enemy*&amp;gt; enemies&lt;/div&gt;&lt;div&gt;&lt;br&gt;&lt;/div&gt;" style="text;strokeColor=none;fillColor=none;align=left;verticalAlign=top;spacingLeft=4;spacingRight=4;overflow=hidden;rotatable=0;points=[[0,0.5],[1,0.5]];portConstraint=eastwest;whiteSpace=wrap;html=1;" vertex="1" parent="Qn4JZDb_33ZS8o1DmR2T-9">
          <mxGeometry y="104" width="185" height="26" as="geometry" />
        </mxCell>
        <mxCell id="Qn4JZDb_33ZS8o1DmR2T-71" value="&lt;div&gt;- int enemyTypeCount&lt;/div&gt;&lt;div&gt;&lt;br&gt;&lt;/div&gt;" style="text;strokeColor=none;fillColor=none;align=left;verticalAlign=top;spacingLeft=4;spacingRight=4;overflow=hidden;rotatable=0;points=[[0,0.5],[1,0.5]];portConstraint=eastwest;whiteSpace=wrap;html=1;" vertex="1" parent="Qn4JZDb_33ZS8o1DmR2T-9">
          <mxGeometry y="130" width="185" height="26" as="geometry" />
        </mxCell>
        <mxCell id="Qn4JZDb_33ZS8o1DmR2T-8" value="&lt;div&gt;- GameState currentState&lt;/div&gt;" style="text;strokeColor=none;fillColor=none;align=left;verticalAlign=top;spacingLeft=4;spacingRight=4;overflow=hidden;rotatable=0;points=[[0,0.5],[1,0.5]];portConstraint=eastwest;whiteSpace=wrap;html=1;" vertex="1" parent="Qn4JZDb_33ZS8o1DmR2T-9">
          <mxGeometry y="156" width="185" height="26" as="geometry" />
        </mxCell>
        <mxCell id="Qn4JZDb_33ZS8o1DmR2T-11" value="" style="line;strokeWidth=1;fillColor=none;align=left;verticalAlign=middle;spacingTop=-1;spacingLeft=3;spacingRight=3;rotatable=0;labelPosition=right;points=[];portConstraint=eastwest;strokeColor=inherit;" vertex="1" parent="Qn4JZDb_33ZS8o1DmR2T-9">
          <mxGeometry y="182" width="185" height="8" as="geometry" />
        </mxCell>
        <mxCell id="Qn4JZDb_33ZS8o1DmR2T-13" value="+ Engine()" style="text;strokeColor=none;fillColor=none;align=left;verticalAlign=top;spacingLeft=4;spacingRight=4;overflow=hidden;rotatable=0;points=[[0,0.5],[1,0.5]];portConstraint=eastwest;whiteSpace=wrap;html=1;" vertex="1" parent="Qn4JZDb_33ZS8o1DmR2T-9">
          <mxGeometry y="190" width="185" height="26" as="geometry" />
        </mxCell>
        <mxCell id="Qn4JZDb_33ZS8o1DmR2T-12" value="+ run() : int" style="text;strokeColor=none;fillColor=none;align=left;verticalAlign=top;spacingLeft=4;spacingRight=4;overflow=hidden;rotatable=0;points=[[0,0.5],[1,0.5]];portConstraint=eastwest;whiteSpace=wrap;html=1;" vertex="1" parent="Qn4JZDb_33ZS8o1DmR2T-9">
          <mxGeometry y="216" width="185" height="26" as="geometry" />
        </mxCell>
        <mxCell id="Qn4JZDb_33ZS8o1DmR2T-14" value="- updateGameState() : void" style="text;strokeColor=none;fillColor=none;align=left;verticalAlign=top;spacingLeft=4;spacingRight=4;overflow=hidden;rotatable=0;points=[[0,0.5],[1,0.5]];portConstraint=eastwest;whiteSpace=wrap;html=1;" vertex="1" parent="Qn4JZDb_33ZS8o1DmR2T-9">
          <mxGeometry y="242" width="185" height="26" as="geometry" />
        </mxCell>
        <mxCell id="Qn4JZDb_33ZS8o1DmR2T-15" value="- handleCollisions() : void" style="text;strokeColor=none;fillColor=none;align=left;verticalAlign=top;spacingLeft=4;spacingRight=4;overflow=hidden;rotatable=0;points=[[0,0.5],[1,0.5]];portConstraint=eastwest;whiteSpace=wrap;html=1;" vertex="1" parent="Qn4JZDb_33ZS8o1DmR2T-9">
          <mxGeometry y="268" width="185" height="26" as="geometry" />
        </mxCell>
        <mxCell id="Qn4JZDb_33ZS8o1DmR2T-16" value="Character" style="swimlane;fontStyle=1;align=center;verticalAlign=top;childLayout=stackLayout;horizontal=1;startSize=26;horizontalStack=0;resizeParent=1;resizeParentMax=0;resizeLast=0;collapsible=1;marginBottom=0;whiteSpace=wrap;html=1;" vertex="1" parent="1">
          <mxGeometry x="530" y="150" width="185" height="346" as="geometry" />
        </mxCell>
        <mxCell id="Qn4JZDb_33ZS8o1DmR2T-17" value="- string name" style="text;strokeColor=none;fillColor=none;align=left;verticalAlign=top;spacingLeft=4;spacingRight=4;overflow=hidden;rotatable=0;points=[[0,0.5],[1,0.5]];portConstraint=eastwest;whiteSpace=wrap;html=1;" vertex="1" parent="Qn4JZDb_33ZS8o1DmR2T-16">
          <mxGeometry y="26" width="185" height="26" as="geometry" />
        </mxCell>
        <mxCell id="Qn4JZDb_33ZS8o1DmR2T-18" value="- int health" style="text;strokeColor=none;fillColor=none;align=left;verticalAlign=top;spacingLeft=4;spacingRight=4;overflow=hidden;rotatable=0;points=[[0,0.5],[1,0.5]];portConstraint=eastwest;whiteSpace=wrap;html=1;" vertex="1" parent="Qn4JZDb_33ZS8o1DmR2T-16">
          <mxGeometry y="52" width="185" height="26" as="geometry" />
        </mxCell>
        <mxCell id="Qn4JZDb_33ZS8o1DmR2T-19" value="&lt;div&gt;- int maxHealth&lt;/div&gt;" style="text;strokeColor=none;fillColor=none;align=left;verticalAlign=top;spacingLeft=4;spacingRight=4;overflow=hidden;rotatable=0;points=[[0,0.5],[1,0.5]];portConstraint=eastwest;whiteSpace=wrap;html=1;" vertex="1" parent="Qn4JZDb_33ZS8o1DmR2T-16">
          <mxGeometry y="78" width="185" height="26" as="geometry" />
        </mxCell>
        <mxCell id="Qn4JZDb_33ZS8o1DmR2T-20" value="&lt;div&gt;- int attack&lt;/div&gt;" style="text;strokeColor=none;fillColor=none;align=left;verticalAlign=top;spacingLeft=4;spacingRight=4;overflow=hidden;rotatable=0;points=[[0,0.5],[1,0.5]];portConstraint=eastwest;whiteSpace=wrap;html=1;" vertex="1" parent="Qn4JZDb_33ZS8o1DmR2T-16">
          <mxGeometry y="104" width="185" height="26" as="geometry" />
        </mxCell>
        <mxCell id="Qn4JZDb_33ZS8o1DmR2T-21" value="&lt;div&gt;- int defense&lt;/div&gt;" style="text;strokeColor=none;fillColor=none;align=left;verticalAlign=top;spacingLeft=4;spacingRight=4;overflow=hidden;rotatable=0;points=[[0,0.5],[1,0.5]];portConstraint=eastwest;whiteSpace=wrap;html=1;" vertex="1" parent="Qn4JZDb_33ZS8o1DmR2T-16">
          <mxGeometry y="130" width="185" height="26" as="geometry" />
        </mxCell>
        <mxCell id="Qn4JZDb_33ZS8o1DmR2T-27" value="&lt;div&gt;- int speed&lt;/div&gt;" style="text;strokeColor=none;fillColor=none;align=left;verticalAlign=top;spacingLeft=4;spacingRight=4;overflow=hidden;rotatable=0;points=[[0,0.5],[1,0.5]];portConstraint=eastwest;whiteSpace=wrap;html=1;" vertex="1" parent="Qn4JZDb_33ZS8o1DmR2T-16">
          <mxGeometry y="156" width="185" height="26" as="geometry" />
        </mxCell>
        <mxCell id="Qn4JZDb_33ZS8o1DmR2T-28" value="&lt;div&gt;- SDL_Texture* sprite&lt;/div&gt;" style="text;strokeColor=none;fillColor=none;align=left;verticalAlign=top;spacingLeft=4;spacingRight=4;overflow=hidden;rotatable=0;points=[[0,0.5],[1,0.5]];portConstraint=eastwest;whiteSpace=wrap;html=1;" vertex="1" parent="Qn4JZDb_33ZS8o1DmR2T-16">
          <mxGeometry y="182" width="185" height="26" as="geometry" />
        </mxCell>
        <mxCell id="Qn4JZDb_33ZS8o1DmR2T-22" value="" style="line;strokeWidth=1;fillColor=none;align=left;verticalAlign=middle;spacingTop=-1;spacingLeft=3;spacingRight=3;rotatable=0;labelPosition=right;points=[];portConstraint=eastwest;strokeColor=inherit;" vertex="1" parent="Qn4JZDb_33ZS8o1DmR2T-16">
          <mxGeometry y="208" width="185" height="8" as="geometry" />
        </mxCell>
        <mxCell id="Qn4JZDb_33ZS8o1DmR2T-23" value="+ Character()" style="text;strokeColor=none;fillColor=none;align=left;verticalAlign=top;spacingLeft=4;spacingRight=4;overflow=hidden;rotatable=0;points=[[0,0.5],[1,0.5]];portConstraint=eastwest;whiteSpace=wrap;html=1;" vertex="1" parent="Qn4JZDb_33ZS8o1DmR2T-16">
          <mxGeometry y="216" width="185" height="26" as="geometry" />
        </mxCell>
        <mxCell id="Qn4JZDb_33ZS8o1DmR2T-24" value="+ takeDamage(damage) : void&lt;div&gt;&lt;br&gt;&lt;/div&gt;" style="text;strokeColor=none;fillColor=none;align=left;verticalAlign=top;spacingLeft=4;spacingRight=4;overflow=hidden;rotatable=0;points=[[0,0.5],[1,0.5]];portConstraint=eastwest;whiteSpace=wrap;html=1;" vertex="1" parent="Qn4JZDb_33ZS8o1DmR2T-16">
          <mxGeometry y="242" width="185" height="26" as="geometry" />
        </mxCell>
        <mxCell id="Qn4JZDb_33ZS8o1DmR2T-25" value="+ attack(target) : void" style="text;strokeColor=none;fillColor=none;align=left;verticalAlign=top;spacingLeft=4;spacingRight=4;overflow=hidden;rotatable=0;points=[[0,0.5],[1,0.5]];portConstraint=eastwest;whiteSpace=wrap;html=1;" vertex="1" parent="Qn4JZDb_33ZS8o1DmR2T-16">
          <mxGeometry y="268" width="185" height="26" as="geometry" />
        </mxCell>
        <mxCell id="Qn4JZDb_33ZS8o1DmR2T-26" value="+ isAlive() : bool" style="text;strokeColor=none;fillColor=none;align=left;verticalAlign=top;spacingLeft=4;spacingRight=4;overflow=hidden;rotatable=0;points=[[0,0.5],[1,0.5]];portConstraint=eastwest;whiteSpace=wrap;html=1;" vertex="1" parent="Qn4JZDb_33ZS8o1DmR2T-16">
          <mxGeometry y="294" width="185" height="26" as="geometry" />
        </mxCell>
        <mxCell id="Qn4JZDb_33ZS8o1DmR2T-29" value="+ getters" style="text;strokeColor=none;fillColor=none;align=left;verticalAlign=top;spacingLeft=4;spacingRight=4;overflow=hidden;rotatable=0;points=[[0,0.5],[1,0.5]];portConstraint=eastwest;whiteSpace=wrap;html=1;" vertex="1" parent="Qn4JZDb_33ZS8o1DmR2T-16">
          <mxGeometry y="320" width="185" height="26" as="geometry" />
        </mxCell>
        <mxCell id="Qn4JZDb_33ZS8o1DmR2T-32" style="edgeStyle=orthogonalEdgeStyle;rounded=0;orthogonalLoop=1;jettySize=auto;html=1;entryX=1.008;entryY=0.197;entryDx=0;entryDy=0;entryPerimeter=0;endArrow=diamondThin;endFill=1;" edge="1" parent="1" source="Qn4JZDb_33ZS8o1DmR2T-16" target="Qn4JZDb_33ZS8o1DmR2T-13">
          <mxGeometry relative="1" as="geometry">
            <Array as="points">
              <mxPoint x="490" y="320" />
            </Array>
          </mxGeometry>
        </mxCell>
        <mxCell id="Qn4JZDb_33ZS8o1DmR2T-56" style="edgeStyle=orthogonalEdgeStyle;rounded=0;orthogonalLoop=1;jettySize=auto;html=1;entryX=0;entryY=0.5;entryDx=0;entryDy=0;endArrow=diamondThin;endFill=1;" edge="1" parent="1" source="Qn4JZDb_33ZS8o1DmR2T-33" target="Qn4JZDb_33ZS8o1DmR2T-7">
          <mxGeometry relative="1" as="geometry">
            <Array as="points">
              <mxPoint x="210" y="267" />
              <mxPoint x="210" y="267" />
            </Array>
          </mxGeometry>
        </mxCell>
        <mxCell id="Qn4JZDb_33ZS8o1DmR2T-33" value="InputHandler" style="swimlane;fontStyle=1;align=center;verticalAlign=top;childLayout=stackLayout;horizontal=1;startSize=26;horizontalStack=0;resizeParent=1;resizeParentMax=0;resizeLast=0;collapsible=1;marginBottom=0;whiteSpace=wrap;html=1;" vertex="1" parent="1">
          <mxGeometry x="-100" y="150" width="285" height="242" as="geometry" />
        </mxCell>
        <mxCell id="Qn4JZDb_33ZS8o1DmR2T-34" value="- SDL_Event event" style="text;strokeColor=none;fillColor=none;align=left;verticalAlign=top;spacingLeft=4;spacingRight=4;overflow=hidden;rotatable=0;points=[[0,0.5],[1,0.5]];portConstraint=eastwest;whiteSpace=wrap;html=1;" vertex="1" parent="Qn4JZDb_33ZS8o1DmR2T-33">
          <mxGeometry y="26" width="285" height="26" as="geometry" />
        </mxCell>
        <mxCell id="Qn4JZDb_33ZS8o1DmR2T-35" value="- bool keysDown[SDL_NUM_SCANCODES]" style="text;strokeColor=none;fillColor=none;align=left;verticalAlign=top;spacingLeft=4;spacingRight=4;overflow=hidden;rotatable=0;points=[[0,0.5],[1,0.5]];portConstraint=eastwest;whiteSpace=wrap;html=1;" vertex="1" parent="Qn4JZDb_33ZS8o1DmR2T-33">
          <mxGeometry y="52" width="285" height="26" as="geometry" />
        </mxCell>
        <mxCell id="Qn4JZDb_33ZS8o1DmR2T-39" value="" style="line;strokeWidth=1;fillColor=none;align=left;verticalAlign=middle;spacingTop=-1;spacingLeft=3;spacingRight=3;rotatable=0;labelPosition=right;points=[];portConstraint=eastwest;strokeColor=inherit;" vertex="1" parent="Qn4JZDb_33ZS8o1DmR2T-33">
          <mxGeometry y="78" width="285" height="8" as="geometry" />
        </mxCell>
        <mxCell id="Qn4JZDb_33ZS8o1DmR2T-40" value="+ InputHandler()" style="text;strokeColor=none;fillColor=none;align=left;verticalAlign=top;spacingLeft=4;spacingRight=4;overflow=hidden;rotatable=0;points=[[0,0.5],[1,0.5]];portConstraint=eastwest;whiteSpace=wrap;html=1;" vertex="1" parent="Qn4JZDb_33ZS8o1DmR2T-33">
          <mxGeometry y="86" width="285" height="26" as="geometry" />
        </mxCell>
        <mxCell id="Qn4JZDb_33ZS8o1DmR2T-41" value="+ listen() : void" style="text;strokeColor=none;fillColor=none;align=left;verticalAlign=top;spacingLeft=4;spacingRight=4;overflow=hidden;rotatable=0;points=[[0,0.5],[1,0.5]];portConstraint=eastwest;whiteSpace=wrap;html=1;" vertex="1" parent="Qn4JZDb_33ZS8o1DmR2T-33">
          <mxGeometry y="112" width="285" height="26" as="geometry" />
        </mxCell>
        <mxCell id="Qn4JZDb_33ZS8o1DmR2T-42" value="+ isKeyDown(SDL_Scancode key) : bool" style="text;strokeColor=none;fillColor=none;align=left;verticalAlign=top;spacingLeft=4;spacingRight=4;overflow=hidden;rotatable=0;points=[[0,0.5],[1,0.5]];portConstraint=eastwest;whiteSpace=wrap;html=1;" vertex="1" parent="Qn4JZDb_33ZS8o1DmR2T-33">
          <mxGeometry y="138" width="285" height="26" as="geometry" />
        </mxCell>
        <mxCell id="Qn4JZDb_33ZS8o1DmR2T-43" value="+ isMouseClicked() : bool" style="text;strokeColor=none;fillColor=none;align=left;verticalAlign=top;spacingLeft=4;spacingRight=4;overflow=hidden;rotatable=0;points=[[0,0.5],[1,0.5]];portConstraint=eastwest;whiteSpace=wrap;html=1;" vertex="1" parent="Qn4JZDb_33ZS8o1DmR2T-33">
          <mxGeometry y="164" width="285" height="26" as="geometry" />
        </mxCell>
        <mxCell id="Qn4JZDb_33ZS8o1DmR2T-44" value="+ getMousePosition() : SDL_Point" style="text;strokeColor=none;fillColor=none;align=left;verticalAlign=top;spacingLeft=4;spacingRight=4;overflow=hidden;rotatable=0;points=[[0,0.5],[1,0.5]];portConstraint=eastwest;whiteSpace=wrap;html=1;" vertex="1" parent="Qn4JZDb_33ZS8o1DmR2T-33">
          <mxGeometry y="190" width="285" height="26" as="geometry" />
        </mxCell>
        <mxCell id="Qn4JZDb_33ZS8o1DmR2T-45" value="+ isQuitRequested() : bool" style="text;strokeColor=none;fillColor=none;align=left;verticalAlign=top;spacingLeft=4;spacingRight=4;overflow=hidden;rotatable=0;points=[[0,0.5],[1,0.5]];portConstraint=eastwest;whiteSpace=wrap;html=1;" vertex="1" parent="Qn4JZDb_33ZS8o1DmR2T-33">
          <mxGeometry y="216" width="285" height="26" as="geometry" />
        </mxCell>
        <mxCell id="Qn4JZDb_33ZS8o1DmR2T-46" value="Renderer" style="swimlane;fontStyle=1;align=center;verticalAlign=top;childLayout=stackLayout;horizontal=1;startSize=26;horizontalStack=0;resizeParent=1;resizeParentMax=0;resizeLast=0;collapsible=1;marginBottom=0;whiteSpace=wrap;html=1;" vertex="1" parent="1">
          <mxGeometry x="-60" y="418" width="285" height="450" as="geometry" />
        </mxCell>
        <mxCell id="Qn4JZDb_33ZS8o1DmR2T-47" value="- SDL_Window* window" style="text;strokeColor=none;fillColor=none;align=left;verticalAlign=top;spacingLeft=4;spacingRight=4;overflow=hidden;rotatable=0;points=[[0,0.5],[1,0.5]];portConstraint=eastwest;whiteSpace=wrap;html=1;" vertex="1" parent="Qn4JZDb_33ZS8o1DmR2T-46">
          <mxGeometry y="26" width="285" height="26" as="geometry" />
        </mxCell>
        <mxCell id="Qn4JZDb_33ZS8o1DmR2T-48" value="- SDL_Renderer* renderer" style="text;strokeColor=none;fillColor=none;align=left;verticalAlign=top;spacingLeft=4;spacingRight=4;overflow=hidden;rotatable=0;points=[[0,0.5],[1,0.5]];portConstraint=eastwest;whiteSpace=wrap;html=1;" vertex="1" parent="Qn4JZDb_33ZS8o1DmR2T-46">
          <mxGeometry y="52" width="285" height="26" as="geometry" />
        </mxCell>
        <mxCell id="Qn4JZDb_33ZS8o1DmR2T-57" value="- TTF_Font* font" style="text;strokeColor=none;fillColor=none;align=left;verticalAlign=top;spacingLeft=4;spacingRight=4;overflow=hidden;rotatable=0;points=[[0,0.5],[1,0.5]];portConstraint=eastwest;whiteSpace=wrap;html=1;" vertex="1" parent="Qn4JZDb_33ZS8o1DmR2T-46">
          <mxGeometry y="78" width="285" height="26" as="geometry" />
        </mxCell>
        <mxCell id="Qn4JZDb_33ZS8o1DmR2T-58" value="- int width" style="text;strokeColor=none;fillColor=none;align=left;verticalAlign=top;spacingLeft=4;spacingRight=4;overflow=hidden;rotatable=0;points=[[0,0.5],[1,0.5]];portConstraint=eastwest;whiteSpace=wrap;html=1;" vertex="1" parent="Qn4JZDb_33ZS8o1DmR2T-46">
          <mxGeometry y="104" width="285" height="26" as="geometry" />
        </mxCell>
        <mxCell id="Qn4JZDb_33ZS8o1DmR2T-59" value="- int height" style="text;strokeColor=none;fillColor=none;align=left;verticalAlign=top;spacingLeft=4;spacingRight=4;overflow=hidden;rotatable=0;points=[[0,0.5],[1,0.5]];portConstraint=eastwest;whiteSpace=wrap;html=1;" vertex="1" parent="Qn4JZDb_33ZS8o1DmR2T-46">
          <mxGeometry y="130" width="285" height="26" as="geometry" />
        </mxCell>
        <mxCell id="Qn4JZDb_33ZS8o1DmR2T-49" value="" style="line;strokeWidth=1;fillColor=none;align=left;verticalAlign=middle;spacingTop=-1;spacingLeft=3;spacingRight=3;rotatable=0;labelPosition=right;points=[];portConstraint=eastwest;strokeColor=inherit;" vertex="1" parent="Qn4JZDb_33ZS8o1DmR2T-46">
          <mxGeometry y="156" width="285" height="8" as="geometry" />
        </mxCell>
        <mxCell id="Qn4JZDb_33ZS8o1DmR2T-50" value="+ Renderer()" style="text;strokeColor=none;fillColor=none;align=left;verticalAlign=top;spacingLeft=4;spacingRight=4;overflow=hidden;rotatable=0;points=[[0,0.5],[1,0.5]];portConstraint=eastwest;whiteSpace=wrap;html=1;" vertex="1" parent="Qn4JZDb_33ZS8o1DmR2T-46">
          <mxGeometry y="164" width="285" height="26" as="geometry" />
        </mxCell>
        <mxCell id="Qn4JZDb_33ZS8o1DmR2T-51" value="+ startSDL() : bool" style="text;strokeColor=none;fillColor=none;align=left;verticalAlign=top;spacingLeft=4;spacingRight=4;overflow=hidden;rotatable=0;points=[[0,0.5],[1,0.5]];portConstraint=eastwest;whiteSpace=wrap;html=1;" vertex="1" parent="Qn4JZDb_33ZS8o1DmR2T-46">
          <mxGeometry y="190" width="285" height="26" as="geometry" />
        </mxCell>
        <mxCell id="Qn4JZDb_33ZS8o1DmR2T-60" value="+ renderText(message, color)" style="text;strokeColor=none;fillColor=none;align=left;verticalAlign=top;spacingLeft=4;spacingRight=4;overflow=hidden;rotatable=0;points=[[0,0.5],[1,0.5]];portConstraint=eastwest;whiteSpace=wrap;html=1;" vertex="1" parent="Qn4JZDb_33ZS8o1DmR2T-46">
          <mxGeometry y="216" width="285" height="26" as="geometry" />
        </mxCell>
        <mxCell id="Qn4JZDb_33ZS8o1DmR2T-53" value="+ showMainMenu() : void" style="text;strokeColor=none;fillColor=none;align=left;verticalAlign=top;spacingLeft=4;spacingRight=4;overflow=hidden;rotatable=0;points=[[0,0.5],[1,0.5]];portConstraint=eastwest;whiteSpace=wrap;html=1;" vertex="1" parent="Qn4JZDb_33ZS8o1DmR2T-46">
          <mxGeometry y="242" width="285" height="26" as="geometry" />
        </mxCell>
        <mxCell id="Qn4JZDb_33ZS8o1DmR2T-54" value="+ showOptions() : void" style="text;strokeColor=none;fillColor=none;align=left;verticalAlign=top;spacingLeft=4;spacingRight=4;overflow=hidden;rotatable=0;points=[[0,0.5],[1,0.5]];portConstraint=eastwest;whiteSpace=wrap;html=1;" vertex="1" parent="Qn4JZDb_33ZS8o1DmR2T-46">
          <mxGeometry y="268" width="285" height="26" as="geometry" />
        </mxCell>
        <mxCell id="Qn4JZDb_33ZS8o1DmR2T-55" value="+ showDifficulty() : void" style="text;strokeColor=none;fillColor=none;align=left;verticalAlign=top;spacingLeft=4;spacingRight=4;overflow=hidden;rotatable=0;points=[[0,0.5],[1,0.5]];portConstraint=eastwest;whiteSpace=wrap;html=1;" vertex="1" parent="Qn4JZDb_33ZS8o1DmR2T-46">
          <mxGeometry y="294" width="285" height="26" as="geometry" />
        </mxCell>
        <mxCell id="Qn4JZDb_33ZS8o1DmR2T-61" value="+ showChangeVolume() : void" style="text;strokeColor=none;fillColor=none;align=left;verticalAlign=top;spacingLeft=4;spacingRight=4;overflow=hidden;rotatable=0;points=[[0,0.5],[1,0.5]];portConstraint=eastwest;whiteSpace=wrap;html=1;" vertex="1" parent="Qn4JZDb_33ZS8o1DmR2T-46">
          <mxGeometry y="320" width="285" height="26" as="geometry" />
        </mxCell>
        <mxCell id="Qn4JZDb_33ZS8o1DmR2T-62" value="+ showInstructions() : void" style="text;strokeColor=none;fillColor=none;align=left;verticalAlign=top;spacingLeft=4;spacingRight=4;overflow=hidden;rotatable=0;points=[[0,0.5],[1,0.5]];portConstraint=eastwest;whiteSpace=wrap;html=1;" vertex="1" parent="Qn4JZDb_33ZS8o1DmR2T-46">
          <mxGeometry y="346" width="285" height="26" as="geometry" />
        </mxCell>
        <mxCell id="Qn4JZDb_33ZS8o1DmR2T-63" value="+ renderGame(player, enemies) : void" style="text;strokeColor=none;fillColor=none;align=left;verticalAlign=top;spacingLeft=4;spacingRight=4;overflow=hidden;rotatable=0;points=[[0,0.5],[1,0.5]];portConstraint=eastwest;whiteSpace=wrap;html=1;" vertex="1" parent="Qn4JZDb_33ZS8o1DmR2T-46">
          <mxGeometry y="372" width="285" height="26" as="geometry" />
        </mxCell>
        <mxCell id="Qn4JZDb_33ZS8o1DmR2T-64" value="+ renderPauseMenu(player, enemies) : void" style="text;strokeColor=none;fillColor=none;align=left;verticalAlign=top;spacingLeft=4;spacingRight=4;overflow=hidden;rotatable=0;points=[[0,0.5],[1,0.5]];portConstraint=eastwest;whiteSpace=wrap;html=1;" vertex="1" parent="Qn4JZDb_33ZS8o1DmR2T-46">
          <mxGeometry y="398" width="285" height="26" as="geometry" />
        </mxCell>
        <mxCell id="Qn4JZDb_33ZS8o1DmR2T-65" value="+ clean() : void" style="text;strokeColor=none;fillColor=none;align=left;verticalAlign=top;spacingLeft=4;spacingRight=4;overflow=hidden;rotatable=0;points=[[0,0.5],[1,0.5]];portConstraint=eastwest;whiteSpace=wrap;html=1;" vertex="1" parent="Qn4JZDb_33ZS8o1DmR2T-46">
          <mxGeometry y="424" width="285" height="26" as="geometry" />
        </mxCell>
        <mxCell id="Qn4JZDb_33ZS8o1DmR2T-66" style="edgeStyle=orthogonalEdgeStyle;rounded=0;orthogonalLoop=1;jettySize=auto;html=1;entryX=0;entryY=0.5;entryDx=0;entryDy=0;endArrow=diamondThin;endFill=1;" edge="1" parent="1" source="Qn4JZDb_33ZS8o1DmR2T-47" target="Qn4JZDb_33ZS8o1DmR2T-7">
          <mxGeometry relative="1" as="geometry" />
        </mxCell>
        <mxCell id="Qn4JZDb_33ZS8o1DmR2T-79" style="edgeStyle=orthogonalEdgeStyle;rounded=0;orthogonalLoop=1;jettySize=auto;html=1;entryX=1;entryY=0.25;entryDx=0;entryDy=0;endArrow=diamondThin;endFill=1;" edge="1" parent="1" source="Qn4JZDb_33ZS8o1DmR2T-67" target="Qn4JZDb_33ZS8o1DmR2T-72">
          <mxGeometry relative="1" as="geometry">
            <Array as="points">
              <mxPoint x="731" y="602" />
            </Array>
          </mxGeometry>
        </mxCell>
        <mxCell id="Qn4JZDb_33ZS8o1DmR2T-67" value="&amp;lt;&amp;lt;enumeration&amp;gt;&amp;gt;&lt;div&gt;EnemyType&lt;/div&gt;" style="swimlane;fontStyle=0;childLayout=stackLayout;horizontal=1;startSize=32;fillColor=none;horizontalStack=0;resizeParent=1;resizeParentMax=0;resizeLast=0;collapsible=1;marginBottom=0;whiteSpace=wrap;html=1;" vertex="1" parent="1">
          <mxGeometry x="760" y="580" width="140" height="110" as="geometry" />
        </mxCell>
        <mxCell id="Qn4JZDb_33ZS8o1DmR2T-68" value="BAT" style="text;strokeColor=none;fillColor=none;align=left;verticalAlign=top;spacingLeft=4;spacingRight=4;overflow=hidden;rotatable=0;points=[[0,0.5],[1,0.5]];portConstraint=eastwest;whiteSpace=wrap;html=1;" vertex="1" parent="Qn4JZDb_33ZS8o1DmR2T-67">
          <mxGeometry y="32" width="140" height="26" as="geometry" />
        </mxCell>
        <mxCell id="Qn4JZDb_33ZS8o1DmR2T-69" value="SLIME" style="text;strokeColor=none;fillColor=none;align=left;verticalAlign=top;spacingLeft=4;spacingRight=4;overflow=hidden;rotatable=0;points=[[0,0.5],[1,0.5]];portConstraint=eastwest;whiteSpace=wrap;html=1;" vertex="1" parent="Qn4JZDb_33ZS8o1DmR2T-67">
          <mxGeometry y="58" width="140" height="26" as="geometry" />
        </mxCell>
        <mxCell id="Qn4JZDb_33ZS8o1DmR2T-70" value="SCORPION" style="text;strokeColor=none;fillColor=none;align=left;verticalAlign=top;spacingLeft=4;spacingRight=4;overflow=hidden;rotatable=0;points=[[0,0.5],[1,0.5]];portConstraint=eastwest;whiteSpace=wrap;html=1;" vertex="1" parent="Qn4JZDb_33ZS8o1DmR2T-67">
          <mxGeometry y="84" width="140" height="26" as="geometry" />
        </mxCell>
        <mxCell id="Qn4JZDb_33ZS8o1DmR2T-72" value="Enemy" style="swimlane;fontStyle=1;align=center;verticalAlign=top;childLayout=stackLayout;horizontal=1;startSize=26;horizontalStack=0;resizeParent=1;resizeParentMax=0;resizeLast=0;collapsible=1;marginBottom=0;whiteSpace=wrap;html=1;" vertex="1" parent="1">
          <mxGeometry x="542.5" y="580" width="160" height="86" as="geometry" />
        </mxCell>
        <mxCell id="Qn4JZDb_33ZS8o1DmR2T-73" value="- EnemyType type" style="text;strokeColor=none;fillColor=none;align=left;verticalAlign=top;spacingLeft=4;spacingRight=4;overflow=hidden;rotatable=0;points=[[0,0.5],[1,0.5]];portConstraint=eastwest;whiteSpace=wrap;html=1;" vertex="1" parent="Qn4JZDb_33ZS8o1DmR2T-72">
          <mxGeometry y="26" width="160" height="26" as="geometry" />
        </mxCell>
        <mxCell id="Qn4JZDb_33ZS8o1DmR2T-74" value="" style="line;strokeWidth=1;fillColor=none;align=left;verticalAlign=middle;spacingTop=-1;spacingLeft=3;spacingRight=3;rotatable=0;labelPosition=right;points=[];portConstraint=eastwest;strokeColor=inherit;" vertex="1" parent="Qn4JZDb_33ZS8o1DmR2T-72">
          <mxGeometry y="52" width="160" height="8" as="geometry" />
        </mxCell>
        <mxCell id="Qn4JZDb_33ZS8o1DmR2T-75" value="+ Enemy()" style="text;strokeColor=none;fillColor=none;align=left;verticalAlign=top;spacingLeft=4;spacingRight=4;overflow=hidden;rotatable=0;points=[[0,0.5],[1,0.5]];portConstraint=eastwest;whiteSpace=wrap;html=1;" vertex="1" parent="Qn4JZDb_33ZS8o1DmR2T-72">
          <mxGeometry y="60" width="160" height="26" as="geometry" />
        </mxCell>
        <mxCell id="Qn4JZDb_33ZS8o1DmR2T-77" style="edgeStyle=orthogonalEdgeStyle;rounded=0;orthogonalLoop=1;jettySize=auto;html=1;entryX=0.491;entryY=1.12;entryDx=0;entryDy=0;entryPerimeter=0;endArrow=block;endFill=0;" edge="1" parent="1" source="Qn4JZDb_33ZS8o1DmR2T-72" target="Qn4JZDb_33ZS8o1DmR2T-29">
          <mxGeometry relative="1" as="geometry">
            <Array as="points">
              <mxPoint x="620" y="499" />
            </Array>
          </mxGeometry>
        </mxCell>
        <mxCell id="Qn4JZDb_33ZS8o1DmR2T-80" style="edgeStyle=orthogonalEdgeStyle;rounded=0;orthogonalLoop=1;jettySize=auto;html=1;entryX=1.003;entryY=0.21;entryDx=0;entryDy=0;entryPerimeter=0;endArrow=diamondThin;endFill=1;" edge="1" parent="1" source="Qn4JZDb_33ZS8o1DmR2T-73" target="Qn4JZDb_33ZS8o1DmR2T-13">
          <mxGeometry relative="1" as="geometry" />
        </mxCell>
        <mxCell id="Qn4JZDb_33ZS8o1DmR2T-81" value="Bat" style="swimlane;fontStyle=1;align=center;verticalAlign=top;childLayout=stackLayout;horizontal=1;startSize=26;horizontalStack=0;resizeParent=1;resizeParentMax=0;resizeLast=0;collapsible=1;marginBottom=0;whiteSpace=wrap;html=1;" vertex="1" parent="1">
          <mxGeometry x="542.5" y="720" width="160" height="86" as="geometry" />
        </mxCell>
        <mxCell id="Qn4JZDb_33ZS8o1DmR2T-83" value="" style="line;strokeWidth=1;fillColor=none;align=left;verticalAlign=middle;spacingTop=-1;spacingLeft=3;spacingRight=3;rotatable=0;labelPosition=right;points=[];portConstraint=eastwest;strokeColor=inherit;" vertex="1" parent="Qn4JZDb_33ZS8o1DmR2T-81">
          <mxGeometry y="26" width="160" height="8" as="geometry" />
        </mxCell>
        <mxCell id="Qn4JZDb_33ZS8o1DmR2T-84" value="+ Bat()" style="text;strokeColor=none;fillColor=none;align=left;verticalAlign=top;spacingLeft=4;spacingRight=4;overflow=hidden;rotatable=0;points=[[0,0.5],[1,0.5]];portConstraint=eastwest;whiteSpace=wrap;html=1;" vertex="1" parent="Qn4JZDb_33ZS8o1DmR2T-81">
          <mxGeometry y="34" width="160" height="26" as="geometry" />
        </mxCell>
        <mxCell id="Qn4JZDb_33ZS8o1DmR2T-85" value="+ attack(target) : void" style="text;strokeColor=none;fillColor=none;align=left;verticalAlign=top;spacingLeft=4;spacingRight=4;overflow=hidden;rotatable=0;points=[[0,0.5],[1,0.5]];portConstraint=eastwest;whiteSpace=wrap;html=1;" vertex="1" parent="Qn4JZDb_33ZS8o1DmR2T-81">
          <mxGeometry y="60" width="160" height="26" as="geometry" />
        </mxCell>
        <mxCell id="Qn4JZDb_33ZS8o1DmR2T-86" style="edgeStyle=orthogonalEdgeStyle;rounded=0;orthogonalLoop=1;jettySize=auto;html=1;entryX=0.5;entryY=1.154;entryDx=0;entryDy=0;entryPerimeter=0;endArrow=block;endFill=0;" edge="1" parent="1" source="Qn4JZDb_33ZS8o1DmR2T-81" target="Qn4JZDb_33ZS8o1DmR2T-75">
          <mxGeometry relative="1" as="geometry">
            <Array as="points">
              <mxPoint x="623" y="693" />
              <mxPoint x="623" y="693" />
              <mxPoint x="623" y="670" />
            </Array>
          </mxGeometry>
        </mxCell>
        <mxCell id="Qn4JZDb_33ZS8o1DmR2T-87" value="Slime" style="swimlane;fontStyle=1;align=center;verticalAlign=top;childLayout=stackLayout;horizontal=1;startSize=26;horizontalStack=0;resizeParent=1;resizeParentMax=0;resizeLast=0;collapsible=1;marginBottom=0;whiteSpace=wrap;html=1;" vertex="1" parent="1">
          <mxGeometry x="370" y="720" width="160" height="86" as="geometry" />
        </mxCell>
        <mxCell id="Qn4JZDb_33ZS8o1DmR2T-88" value="" style="line;strokeWidth=1;fillColor=none;align=left;verticalAlign=middle;spacingTop=-1;spacingLeft=3;spacingRight=3;rotatable=0;labelPosition=right;points=[];portConstraint=eastwest;strokeColor=inherit;" vertex="1" parent="Qn4JZDb_33ZS8o1DmR2T-87">
          <mxGeometry y="26" width="160" height="8" as="geometry" />
        </mxCell>
        <mxCell id="Qn4JZDb_33ZS8o1DmR2T-89" value="+ Slime()" style="text;strokeColor=none;fillColor=none;align=left;verticalAlign=top;spacingLeft=4;spacingRight=4;overflow=hidden;rotatable=0;points=[[0,0.5],[1,0.5]];portConstraint=eastwest;whiteSpace=wrap;html=1;" vertex="1" parent="Qn4JZDb_33ZS8o1DmR2T-87">
          <mxGeometry y="34" width="160" height="26" as="geometry" />
        </mxCell>
        <mxCell id="Qn4JZDb_33ZS8o1DmR2T-90" value="+ attack(target) : void" style="text;strokeColor=none;fillColor=none;align=left;verticalAlign=top;spacingLeft=4;spacingRight=4;overflow=hidden;rotatable=0;points=[[0,0.5],[1,0.5]];portConstraint=eastwest;whiteSpace=wrap;html=1;" vertex="1" parent="Qn4JZDb_33ZS8o1DmR2T-87">
          <mxGeometry y="60" width="160" height="26" as="geometry" />
        </mxCell>
        <mxCell id="Qn4JZDb_33ZS8o1DmR2T-93" style="edgeStyle=orthogonalEdgeStyle;rounded=0;orthogonalLoop=1;jettySize=auto;html=1;entryX=0.269;entryY=1.007;entryDx=0;entryDy=0;entryPerimeter=0;endArrow=block;endFill=0;" edge="1" parent="1" source="Qn4JZDb_33ZS8o1DmR2T-87" target="Qn4JZDb_33ZS8o1DmR2T-75">
          <mxGeometry relative="1" as="geometry" />
        </mxCell>
        <mxCell id="Qn4JZDb_33ZS8o1DmR2T-94" value="Scorpion" style="swimlane;fontStyle=1;align=center;verticalAlign=top;childLayout=stackLayout;horizontal=1;startSize=26;horizontalStack=0;resizeParent=1;resizeParentMax=0;resizeLast=0;collapsible=1;marginBottom=0;whiteSpace=wrap;html=1;" vertex="1" parent="1">
          <mxGeometry x="710" y="720" width="160" height="86" as="geometry" />
        </mxCell>
        <mxCell id="Qn4JZDb_33ZS8o1DmR2T-95" value="" style="line;strokeWidth=1;fillColor=none;align=left;verticalAlign=middle;spacingTop=-1;spacingLeft=3;spacingRight=3;rotatable=0;labelPosition=right;points=[];portConstraint=eastwest;strokeColor=inherit;" vertex="1" parent="Qn4JZDb_33ZS8o1DmR2T-94">
          <mxGeometry y="26" width="160" height="8" as="geometry" />
        </mxCell>
        <mxCell id="Qn4JZDb_33ZS8o1DmR2T-96" value="+ Scorpion()" style="text;strokeColor=none;fillColor=none;align=left;verticalAlign=top;spacingLeft=4;spacingRight=4;overflow=hidden;rotatable=0;points=[[0,0.5],[1,0.5]];portConstraint=eastwest;whiteSpace=wrap;html=1;" vertex="1" parent="Qn4JZDb_33ZS8o1DmR2T-94">
          <mxGeometry y="34" width="160" height="26" as="geometry" />
        </mxCell>
        <mxCell id="Qn4JZDb_33ZS8o1DmR2T-97" value="+ attack(target) : void" style="text;strokeColor=none;fillColor=none;align=left;verticalAlign=top;spacingLeft=4;spacingRight=4;overflow=hidden;rotatable=0;points=[[0,0.5],[1,0.5]];portConstraint=eastwest;whiteSpace=wrap;html=1;" vertex="1" parent="Qn4JZDb_33ZS8o1DmR2T-94">
          <mxGeometry y="60" width="160" height="26" as="geometry" />
        </mxCell>
        <mxCell id="Qn4JZDb_33ZS8o1DmR2T-98" style="edgeStyle=orthogonalEdgeStyle;rounded=0;orthogonalLoop=1;jettySize=auto;html=1;entryX=0.803;entryY=0.987;entryDx=0;entryDy=0;entryPerimeter=0;endArrow=block;endFill=0;" edge="1" parent="1" source="Qn4JZDb_33ZS8o1DmR2T-94" target="Qn4JZDb_33ZS8o1DmR2T-75">
          <mxGeometry relative="1" as="geometry" />
        </mxCell>
        <mxCell id="Qn4JZDb_33ZS8o1DmR2T-110" style="edgeStyle=orthogonalEdgeStyle;rounded=0;orthogonalLoop=1;jettySize=auto;html=1;endArrow=block;endFill=0;" edge="1" parent="1" source="Qn4JZDb_33ZS8o1DmR2T-99" target="Qn4JZDb_33ZS8o1DmR2T-29">
          <mxGeometry relative="1" as="geometry" />
        </mxCell>
        <mxCell id="Qn4JZDb_33ZS8o1DmR2T-99" value="Player" style="swimlane;fontStyle=1;align=center;verticalAlign=top;childLayout=stackLayout;horizontal=1;startSize=26;horizontalStack=0;resizeParent=1;resizeParentMax=0;resizeLast=0;collapsible=1;marginBottom=0;whiteSpace=wrap;html=1;" vertex="1" parent="1">
          <mxGeometry x="295" y="510" width="160" height="164" as="geometry" />
        </mxCell>
        <mxCell id="Qn4JZDb_33ZS8o1DmR2T-100" value="- int x" style="text;strokeColor=none;fillColor=none;align=left;verticalAlign=top;spacingLeft=4;spacingRight=4;overflow=hidden;rotatable=0;points=[[0,0.5],[1,0.5]];portConstraint=eastwest;whiteSpace=wrap;html=1;" vertex="1" parent="Qn4JZDb_33ZS8o1DmR2T-99">
          <mxGeometry y="26" width="160" height="26" as="geometry" />
        </mxCell>
        <mxCell id="Qn4JZDb_33ZS8o1DmR2T-103" value="- int y" style="text;strokeColor=none;fillColor=none;align=left;verticalAlign=top;spacingLeft=4;spacingRight=4;overflow=hidden;rotatable=0;points=[[0,0.5],[1,0.5]];portConstraint=eastwest;whiteSpace=wrap;html=1;" vertex="1" parent="Qn4JZDb_33ZS8o1DmR2T-99">
          <mxGeometry y="52" width="160" height="26" as="geometry" />
        </mxCell>
        <mxCell id="Qn4JZDb_33ZS8o1DmR2T-101" value="" style="line;strokeWidth=1;fillColor=none;align=left;verticalAlign=middle;spacingTop=-1;spacingLeft=3;spacingRight=3;rotatable=0;labelPosition=right;points=[];portConstraint=eastwest;strokeColor=inherit;" vertex="1" parent="Qn4JZDb_33ZS8o1DmR2T-99">
          <mxGeometry y="78" width="160" height="8" as="geometry" />
        </mxCell>
        <mxCell id="Qn4JZDb_33ZS8o1DmR2T-102" value="+ Player()" style="text;strokeColor=none;fillColor=none;align=left;verticalAlign=top;spacingLeft=4;spacingRight=4;overflow=hidden;rotatable=0;points=[[0,0.5],[1,0.5]];portConstraint=eastwest;whiteSpace=wrap;html=1;" vertex="1" parent="Qn4JZDb_33ZS8o1DmR2T-99">
          <mxGeometry y="86" width="160" height="26" as="geometry" />
        </mxCell>
        <mxCell id="Qn4JZDb_33ZS8o1DmR2T-104" value="+ move(newX, newY) : void" style="text;strokeColor=none;fillColor=none;align=left;verticalAlign=top;spacingLeft=4;spacingRight=4;overflow=hidden;rotatable=0;points=[[0,0.5],[1,0.5]];portConstraint=eastwest;whiteSpace=wrap;html=1;" vertex="1" parent="Qn4JZDb_33ZS8o1DmR2T-99">
          <mxGeometry y="112" width="160" height="26" as="geometry" />
        </mxCell>
        <mxCell id="Qn4JZDb_33ZS8o1DmR2T-105" value="+ getters" style="text;strokeColor=none;fillColor=none;align=left;verticalAlign=top;spacingLeft=4;spacingRight=4;overflow=hidden;rotatable=0;points=[[0,0.5],[1,0.5]];portConstraint=eastwest;whiteSpace=wrap;html=1;" vertex="1" parent="Qn4JZDb_33ZS8o1DmR2T-99">
          <mxGeometry y="138" width="160" height="26" as="geometry" />
        </mxCell>
        <mxCell id="Qn4JZDb_33ZS8o1DmR2T-109" style="edgeStyle=orthogonalEdgeStyle;rounded=0;orthogonalLoop=1;jettySize=auto;html=1;entryX=0.564;entryY=0.99;entryDx=0;entryDy=0;entryPerimeter=0;endArrow=diamondThin;endFill=1;" edge="1" parent="1" source="Qn4JZDb_33ZS8o1DmR2T-99" target="Qn4JZDb_33ZS8o1DmR2T-15">
          <mxGeometry relative="1" as="geometry" />
        </mxCell>
        <mxCell id="Qn4JZDb_33ZS8o1DmR2T-111" value="&amp;lt;&amp;lt;enumeration&amp;gt;&amp;gt;&lt;div&gt;GameState&lt;/div&gt;" style="swimlane;fontStyle=0;childLayout=stackLayout;horizontal=1;startSize=32;fillColor=none;horizontalStack=0;resizeParent=1;resizeParentMax=0;resizeLast=0;collapsible=1;marginBottom=0;whiteSpace=wrap;html=1;" vertex="1" parent="1">
          <mxGeometry x="250" y="820" width="140" height="188" as="geometry" />
        </mxCell>
        <mxCell id="Qn4JZDb_33ZS8o1DmR2T-112" value="MAIN_MENU" style="text;strokeColor=none;fillColor=none;align=left;verticalAlign=top;spacingLeft=4;spacingRight=4;overflow=hidden;rotatable=0;points=[[0,0.5],[1,0.5]];portConstraint=eastwest;whiteSpace=wrap;html=1;" vertex="1" parent="Qn4JZDb_33ZS8o1DmR2T-111">
          <mxGeometry y="32" width="140" height="26" as="geometry" />
        </mxCell>
        <mxCell id="Qn4JZDb_33ZS8o1DmR2T-114" value="IN_GAME" style="text;strokeColor=none;fillColor=none;align=left;verticalAlign=top;spacingLeft=4;spacingRight=4;overflow=hidden;rotatable=0;points=[[0,0.5],[1,0.5]];portConstraint=eastwest;whiteSpace=wrap;html=1;" vertex="1" parent="Qn4JZDb_33ZS8o1DmR2T-111">
          <mxGeometry y="58" width="140" height="26" as="geometry" />
        </mxCell>
        <mxCell id="Qn4JZDb_33ZS8o1DmR2T-119" value="COMBAT" style="text;strokeColor=none;fillColor=none;align=left;verticalAlign=top;spacingLeft=4;spacingRight=4;overflow=hidden;rotatable=0;points=[[0,0.5],[1,0.5]];portConstraint=eastwest;whiteSpace=wrap;html=1;" vertex="1" parent="Qn4JZDb_33ZS8o1DmR2T-111">
          <mxGeometry y="84" width="140" height="26" as="geometry" />
        </mxCell>
        <mxCell id="Qn4JZDb_33ZS8o1DmR2T-113" value="PAUSE" style="text;strokeColor=none;fillColor=none;align=left;verticalAlign=top;spacingLeft=4;spacingRight=4;overflow=hidden;rotatable=0;points=[[0,0.5],[1,0.5]];portConstraint=eastwest;whiteSpace=wrap;html=1;" vertex="1" parent="Qn4JZDb_33ZS8o1DmR2T-111">
          <mxGeometry y="110" width="140" height="26" as="geometry" />
        </mxCell>
        <mxCell id="Qn4JZDb_33ZS8o1DmR2T-120" value="GAME_OVER" style="text;strokeColor=none;fillColor=none;align=left;verticalAlign=top;spacingLeft=4;spacingRight=4;overflow=hidden;rotatable=0;points=[[0,0.5],[1,0.5]];portConstraint=eastwest;whiteSpace=wrap;html=1;" vertex="1" parent="Qn4JZDb_33ZS8o1DmR2T-111">
          <mxGeometry y="136" width="140" height="26" as="geometry" />
        </mxCell>
        <mxCell id="Qn4JZDb_33ZS8o1DmR2T-121" value="VICTORY" style="text;strokeColor=none;fillColor=none;align=left;verticalAlign=top;spacingLeft=4;spacingRight=4;overflow=hidden;rotatable=0;points=[[0,0.5],[1,0.5]];portConstraint=eastwest;whiteSpace=wrap;html=1;" vertex="1" parent="Qn4JZDb_33ZS8o1DmR2T-111">
          <mxGeometry y="162" width="140" height="26" as="geometry" />
        </mxCell>
        <mxCell id="Qn4JZDb_33ZS8o1DmR2T-122" style="edgeStyle=orthogonalEdgeStyle;rounded=0;orthogonalLoop=1;jettySize=auto;html=1;entryX=0.564;entryY=0.997;entryDx=0;entryDy=0;entryPerimeter=0;endArrow=diamondThin;endFill=1;" edge="1" parent="1" source="Qn4JZDb_33ZS8o1DmR2T-111" target="Qn4JZDb_33ZS8o1DmR2T-15">
          <mxGeometry relative="1" as="geometry">
            <Array as="points">
              <mxPoint x="270" y="480" />
              <mxPoint x="374" y="480" />
            </Array>
          </mxGeometry>
        </mxCell>
      </root>
    </mxGraphModel>
  </diagram>
</mxfile>
